<mxfile host="app.diagrams.net" agent="Mozilla/5.0 (Macintosh; Intel Mac OS X 10_15_7) AppleWebKit/537.36 (KHTML, like Gecko) Chrome/139.0.0.0 Safari/537.36" version="28.1.0">
  <diagram name="Page-1" id="gwn5c1h6KIxfYBmzUd1z">
    <mxGraphModel dx="877" dy="632" grid="1" gridSize="10" guides="1" tooltips="1" connect="1" arrows="1" fold="1" page="1" pageScale="1" pageWidth="850" pageHeight="1100" math="0" shadow="0">
      <root>
        <mxCell id="0" />
        <mxCell id="1" parent="0" />
        <mxCell id="L-cqcN3nnH2aRj08iDys-12" value="" style="edgeStyle=orthogonalEdgeStyle;rounded=0;orthogonalLoop=1;jettySize=auto;html=1;" edge="1" parent="1" source="L-cqcN3nnH2aRj08iDys-1" target="L-cqcN3nnH2aRj08iDys-11">
          <mxGeometry relative="1" as="geometry" />
        </mxCell>
        <mxCell id="L-cqcN3nnH2aRj08iDys-1" value="erb" style="rounded=0;whiteSpace=wrap;html=1;" vertex="1" parent="1">
          <mxGeometry x="20" y="40" width="120" height="60" as="geometry" />
        </mxCell>
        <mxCell id="L-cqcN3nnH2aRj08iDys-14" value="" style="edgeStyle=orthogonalEdgeStyle;rounded=0;orthogonalLoop=1;jettySize=auto;html=1;" edge="1" parent="1" source="L-cqcN3nnH2aRj08iDys-11" target="L-cqcN3nnH2aRj08iDys-13">
          <mxGeometry relative="1" as="geometry" />
        </mxCell>
        <mxCell id="L-cqcN3nnH2aRj08iDys-20" value="" style="edgeStyle=orthogonalEdgeStyle;rounded=0;orthogonalLoop=1;jettySize=auto;html=1;" edge="1" parent="1" source="L-cqcN3nnH2aRj08iDys-11" target="L-cqcN3nnH2aRj08iDys-19">
          <mxGeometry relative="1" as="geometry" />
        </mxCell>
        <mxCell id="L-cqcN3nnH2aRj08iDys-11" value="name" style="rounded=0;whiteSpace=wrap;html=1;" vertex="1" parent="1">
          <mxGeometry x="160" y="40" width="120" height="60" as="geometry" />
        </mxCell>
        <mxCell id="L-cqcN3nnH2aRj08iDys-16" value="" style="edgeStyle=orthogonalEdgeStyle;rounded=0;orthogonalLoop=1;jettySize=auto;html=1;" edge="1" parent="1" source="L-cqcN3nnH2aRj08iDys-13" target="L-cqcN3nnH2aRj08iDys-15">
          <mxGeometry relative="1" as="geometry" />
        </mxCell>
        <mxCell id="L-cqcN3nnH2aRj08iDys-13" value="username???" style="rounded=0;whiteSpace=wrap;html=1;fillColor=#60a917;fontColor=#ffffff;strokeColor=#2D7600;" vertex="1" parent="1">
          <mxGeometry x="160" y="120" width="120" height="60" as="geometry" />
        </mxCell>
        <mxCell id="L-cqcN3nnH2aRj08iDys-18" value="" style="edgeStyle=orthogonalEdgeStyle;rounded=0;orthogonalLoop=1;jettySize=auto;html=1;" edge="1" parent="1" source="L-cqcN3nnH2aRj08iDys-15" target="L-cqcN3nnH2aRj08iDys-17">
          <mxGeometry relative="1" as="geometry" />
        </mxCell>
        <mxCell id="L-cqcN3nnH2aRj08iDys-23" value="" style="edgeStyle=orthogonalEdgeStyle;rounded=0;orthogonalLoop=1;jettySize=auto;html=1;" edge="1" parent="1" source="L-cqcN3nnH2aRj08iDys-15" target="L-cqcN3nnH2aRj08iDys-22">
          <mxGeometry relative="1" as="geometry" />
        </mxCell>
        <mxCell id="L-cqcN3nnH2aRj08iDys-15" value="password" style="rounded=0;whiteSpace=wrap;html=1;" vertex="1" parent="1">
          <mxGeometry x="160" y="200" width="120" height="60" as="geometry" />
        </mxCell>
        <mxCell id="L-cqcN3nnH2aRj08iDys-25" value="" style="edgeStyle=orthogonalEdgeStyle;rounded=0;orthogonalLoop=1;jettySize=auto;html=1;" edge="1" parent="1" source="L-cqcN3nnH2aRj08iDys-17" target="L-cqcN3nnH2aRj08iDys-24">
          <mxGeometry relative="1" as="geometry" />
        </mxCell>
        <mxCell id="L-cqcN3nnH2aRj08iDys-17" value="email" style="rounded=0;whiteSpace=wrap;html=1;" vertex="1" parent="1">
          <mxGeometry x="160" y="280" width="120" height="60" as="geometry" />
        </mxCell>
        <mxCell id="L-cqcN3nnH2aRj08iDys-19" value="name" style="rounded=0;whiteSpace=wrap;html=1;" vertex="1" parent="1">
          <mxGeometry x="360" y="40" width="120" height="60" as="geometry" />
        </mxCell>
        <mxCell id="L-cqcN3nnH2aRj08iDys-22" value="password" style="rounded=0;whiteSpace=wrap;html=1;" vertex="1" parent="1">
          <mxGeometry x="360" y="200" width="120" height="60" as="geometry" />
        </mxCell>
        <mxCell id="L-cqcN3nnH2aRj08iDys-29" value="" style="edgeStyle=orthogonalEdgeStyle;rounded=0;orthogonalLoop=1;jettySize=auto;html=1;" edge="1" parent="1" source="L-cqcN3nnH2aRj08iDys-24" target="L-cqcN3nnH2aRj08iDys-28">
          <mxGeometry relative="1" as="geometry" />
        </mxCell>
        <mxCell id="L-cqcN3nnH2aRj08iDys-24" value="email" style="rounded=0;whiteSpace=wrap;html=1;" vertex="1" parent="1">
          <mxGeometry x="360" y="280" width="120" height="60" as="geometry" />
        </mxCell>
        <mxCell id="L-cqcN3nnH2aRj08iDys-26" value="" style="edgeStyle=orthogonalEdgeStyle;rounded=0;orthogonalLoop=1;jettySize=auto;html=1;" edge="1" parent="1">
          <mxGeometry relative="1" as="geometry">
            <mxPoint x="420" y="260" as="sourcePoint" />
            <mxPoint x="420" y="280" as="targetPoint" />
          </mxGeometry>
        </mxCell>
        <mxCell id="L-cqcN3nnH2aRj08iDys-27" value="" style="edgeStyle=orthogonalEdgeStyle;rounded=0;orthogonalLoop=1;jettySize=auto;html=1;entryX=0.5;entryY=0;entryDx=0;entryDy=0;" edge="1" parent="1" target="L-cqcN3nnH2aRj08iDys-22">
          <mxGeometry relative="1" as="geometry">
            <mxPoint x="420" y="99" as="sourcePoint" />
            <mxPoint x="420" y="119" as="targetPoint" />
          </mxGeometry>
        </mxCell>
        <mxCell id="L-cqcN3nnH2aRj08iDys-31" value="" style="edgeStyle=orthogonalEdgeStyle;rounded=0;orthogonalLoop=1;jettySize=auto;html=1;" edge="1" parent="1" source="L-cqcN3nnH2aRj08iDys-28" target="L-cqcN3nnH2aRj08iDys-30">
          <mxGeometry relative="1" as="geometry" />
        </mxCell>
        <mxCell id="L-cqcN3nnH2aRj08iDys-28" value="role&lt;div&gt;gymer/trainer&lt;/div&gt;" style="rounded=0;whiteSpace=wrap;html=1;" vertex="1" parent="1">
          <mxGeometry x="360" y="360" width="120" height="60" as="geometry" />
        </mxCell>
        <mxCell id="L-cqcN3nnH2aRj08iDys-30" value="role&lt;div&gt;admin, need to do it programmatically&lt;/div&gt;" style="rounded=0;whiteSpace=wrap;html=1;fillColor=#60a917;fontColor=#ffffff;strokeColor=#2D7600;" vertex="1" parent="1">
          <mxGeometry x="220" y="360" width="120" height="60" as="geometry" />
        </mxCell>
      </root>
    </mxGraphModel>
  </diagram>
</mxfile>
